<?xml version="1.0" encoding="utf-8"?>
<!-- Generator: Adobe Illustrator 23.0.3, SVG Export Plug-In . SVG Version: 6.00 Build 0)  -->
<svg version="1.1" id="Capa_1" width="32px" height="32px" xmlns="http://www.w3.org/2000/svg" xmlns:xlink="http://www.w3.org/1999/xlink" x="0px" y="0px"
	 viewBox="0 0 612 667.64" style="enable-background:new 0 0 612 667.64;" xml:space="preserve">
<style type="text/css">
	.st0{
		fill:#FFF;
	}
</style>
<g>
	<polygon class="st0" points="228.25,185.77 305.77,226.77 383.49,186.16 368.45,272.55 431.1,333.92 344.28,346.32 303.64,667.64 
		266.66,346.13 179.91,333.3 242.86,272.24 	"/>
	<path class="st0" d="M455.28,570.99C552.59,519.7,612,423.64,612,306C612,137,475,0,306,0S0,137,0,306
		c0,113.21,61.48,212.06,152.87,264.99l50.69-93.86l0.05,0C145.21,442.79,106,379.29,106,306.64C106,197.48,194.48,109,303.64,109
		s197.64,88.48,197.64,197.64c0,77.09-32.21,129.87-94.44,168.62"/>
</g>
</svg>